<?xml version="1.0" encoding="utf-8"?>
<svg version="1.1" id="Слой_1" xmlns="http://www.w3.org/2000/svg" xmlns:xlink="http://www.w3.org/1999/xlink" x="0px" y="0px"
	 viewBox="0 0 80 73" style="enable-background:new 0 0 80 73;" xml:space="preserve">
<style type="text/css">
	.st0{fill-rule:evenodd;clip-rule:evenodd;fill:#B35FCE;}
	.st1{fill:#FFFFFF;}
	.st2{fill:none;stroke:#FFFFFF;stroke-width:2;}
</style>
<g>
	<path class="st0" d="M19.4,0c-1.7,0-3,1.3-3,3s1.3,3,3,3l54.7,0c4.4,0,8,3.6,8,8c0,4.4-3.6,8-8,8H59.7c-4,0-7.3,3.3-7.3,7.3v16.9
		c0,1.7,1.3,3,3,3c1.7,0,3-1.3,3-3V29.4c0-0.7,0.6-1.2,1.2-1.2h14.5c7.8,0,14.1-6.3,14.1-14.1C88.2,6.3,81.9,0,74.1,0L19.4,0z
		 M68.8,71.4c1.7,0,3-1.3,3-3c0-1.7-1.3-3-3-3H14.1c-4.4,0-8-3.6-8-8c0-4.4,3.6-8,8-8h14.5c4,0,7.3-3.3,7.3-7.3V25.1
		c0-1.7-1.3-3-3-3c-1.7,0-3,1.3-3,3V42c0,0.7-0.6,1.2-1.2,1.2H14.1C6.3,43.2,0,49.5,0,57.3c0,7.8,6.3,14.1,14.1,14.1H68.8z"/>
	<path class="st1" d="M136.4,56.2c0.6,0,1.1,0.2,1.5,0.5c0.4,0.3,0.6,0.7,0.6,1.2c0,0.5-0.2,0.9-0.6,1.2c-0.4,0.3-0.9,0.5-1.5,0.5
		h-12.1v10.3c0,0.5-0.2,0.9-0.6,1.3s-0.9,0.5-1.6,0.5c-0.6,0-1.1-0.2-1.6-0.5c-0.4-0.3-0.6-0.8-0.6-1.3V46.1c0-0.5,0.2-1,0.6-1.3
		c0.4-0.3,0.9-0.5,1.6-0.5h19c0.6,0,1.2,0.2,1.6,0.5c0.4,0.3,0.6,0.7,0.6,1.2c0,0.5-0.2,0.9-0.6,1.2c-0.4,0.3-0.9,0.5-1.6,0.5h-16.8
		v8.5H136.4z"/>
	<path class="st1" d="M153.1,46.1c0-0.5,0.2-1,0.6-1.3c0.4-0.3,0.9-0.5,1.6-0.5c0.6,0,1.2,0.2,1.6,0.5c0.4,0.3,0.6,0.8,0.6,1.3v23.7
		c0,0.5-0.2,0.9-0.6,1.3c-0.4,0.3-0.9,0.5-1.6,0.5c-0.6,0-1.1-0.2-1.6-0.5s-0.6-0.8-0.6-1.3V46.1z"/>
	<path class="st1" d="M191,44.3c0.6,0,1.1,0.2,1.4,0.5c0.4,0.3,0.6,0.7,0.6,1.2c0,0.5-0.2,0.9-0.6,1.2c-0.4,0.3-0.8,0.5-1.4,0.5h-9
		v22.2c0,0.5-0.2,0.9-0.6,1.3s-0.9,0.5-1.6,0.5c-0.6,0-1.1-0.2-1.6-0.5c-0.4-0.3-0.6-0.8-0.6-1.3V47.7h-9.1c-0.6,0-1.1-0.2-1.5-0.5
		c-0.4-0.3-0.5-0.7-0.5-1.2c0-0.5,0.2-0.9,0.5-1.2c0.4-0.3,0.9-0.5,1.5-0.5H191z"/>
	<path class="st1" d="M224.1,46.1c0-0.5,0.2-1,0.6-1.3c0.4-0.3,0.9-0.5,1.6-0.5s1.1,0.2,1.5,0.5c0.4,0.3,0.6,0.8,0.6,1.3v23.7
		c0,0.5-0.2,1-0.6,1.3c-0.4,0.3-0.9,0.5-1.5,0.5c-0.3,0-0.6,0-1-0.1c-0.3-0.1-0.5-0.3-0.7-0.5l-18.3-20.3v19.1
		c0,0.5-0.2,0.9-0.6,1.3c-0.4,0.3-0.9,0.5-1.6,0.5c-0.6,0-1.1-0.2-1.6-0.5c-0.4-0.4-0.6-0.8-0.6-1.3V46.1c0-0.5,0.2-1,0.6-1.3
		c0.4-0.3,0.9-0.5,1.6-0.5c0.3,0,0.6,0.1,0.9,0.2c0.3,0.1,0.6,0.3,0.8,0.5l18.3,20.3V46.1z"/>
	<path class="st1" d="M262.2,68.3c0.6,0,1.2,0.2,1.6,0.5s0.6,0.7,0.6,1.2c0,0.5-0.2,0.9-0.6,1.3c-0.4,0.3-0.9,0.5-1.6,0.5h-19
		c-0.6,0-1.1-0.2-1.6-0.5s-0.6-0.8-0.6-1.3V46.1c0-0.5,0.2-1,0.6-1.3c0.4-0.3,0.9-0.5,1.6-0.5h19c0.6,0,1.2,0.2,1.6,0.5
		c0.4,0.3,0.6,0.7,0.6,1.2c0,0.5-0.2,0.9-0.6,1.2c-0.4,0.3-0.9,0.5-1.6,0.5h-16.8v8.5h12.1c0.6,0,1.1,0.2,1.5,0.5
		c0.4,0.3,0.6,0.7,0.6,1.2c0,0.5-0.2,0.9-0.6,1.2c-0.4,0.3-0.9,0.5-1.5,0.5h-12.1v8.8H262.2z"/>
	<path class="st1" d="M285.7,44c2.4,0,4.4,0.4,6.1,1.2c1.7,0.8,3.1,2,4.2,3.5c0.3,0.4,0.5,0.9,0.5,1.3c0,0.5-0.3,0.9-0.8,1.3
		c-0.3,0.2-0.7,0.2-1.1,0.2c-0.4,0-0.8-0.1-1.2-0.2c-0.4-0.2-0.6-0.4-0.8-0.7c-0.8-1-1.7-1.8-2.9-2.4c-1.1-0.6-2.5-0.8-4.3-0.8
		c-2.1,0-3.8,0.3-5.2,1c-1.3,0.7-2,1.7-2,3c0,1.2,0.6,2.2,1.8,3c1.2,0.8,3.3,1.4,6.3,1.6c3.4,0.3,6,1.1,7.8,2.6
		c1.8,1.4,2.8,3.3,2.8,5.6c0,1.7-0.5,3.1-1.6,4.3c-1.1,1.2-2.5,2.1-4.4,2.7c-1.8,0.6-3.7,0.9-5.8,0.9c-2.7,0-5.2-0.5-7.4-1.5
		c-2.2-1-3.7-2.4-4.6-4c-0.1-0.3-0.2-0.5-0.2-0.7c0-0.3,0.2-0.7,0.5-0.9c0.3-0.3,0.7-0.5,1.3-0.6c0.1,0,0.2,0,0.4,0
		c0.4,0,0.9,0.1,1.3,0.3c0.4,0.2,0.7,0.5,0.9,0.9c0.5,0.9,1.5,1.7,3,2.3c1.5,0.6,3.1,0.9,4.9,0.9c2.1,0,3.9-0.4,5.3-1.2
		c1.5-0.8,2.2-1.9,2.2-3.3c0-1.3-0.6-2.5-1.8-3.4c-1.2-1-3.1-1.5-5.6-1.8c-3.5-0.3-6.2-1.1-8.2-2.5c-2-1.4-3-3.2-3-5.3
		c0-1.5,0.5-2.8,1.5-3.8c1-1.1,2.4-1.9,4.2-2.5C281.5,44.3,283.5,44,285.7,44z"/>
	<path class="st1" d="M318.8,44c2.4,0,4.4,0.4,6.1,1.2c1.7,0.8,3.1,2,4.2,3.5c0.3,0.4,0.5,0.9,0.5,1.3c0,0.5-0.3,0.9-0.8,1.3
		c-0.3,0.2-0.7,0.2-1.1,0.2c-0.4,0-0.8-0.1-1.2-0.2c-0.4-0.2-0.6-0.4-0.8-0.7c-0.8-1-1.7-1.8-2.9-2.4c-1.1-0.6-2.5-0.8-4.3-0.8
		c-2.1,0-3.8,0.3-5.2,1c-1.3,0.7-2,1.7-2,3c0,1.2,0.6,2.2,1.8,3c1.2,0.8,3.3,1.4,6.3,1.6c3.4,0.3,6,1.1,7.8,2.6
		c1.8,1.4,2.8,3.3,2.8,5.6c0,1.7-0.5,3.1-1.6,4.3c-1.1,1.2-2.5,2.1-4.4,2.7c-1.8,0.6-3.7,0.9-5.8,0.9c-2.7,0-5.2-0.5-7.4-1.5
		c-2.2-1-3.7-2.4-4.6-4c-0.1-0.3-0.2-0.5-0.2-0.7c0-0.3,0.2-0.7,0.5-0.9c0.3-0.3,0.7-0.5,1.3-0.6c0.1,0,0.2,0,0.4,0
		c0.4,0,0.9,0.1,1.3,0.3c0.4,0.2,0.7,0.5,0.9,0.9c0.5,0.9,1.5,1.7,3,2.3c1.5,0.6,3.1,0.9,4.9,0.9c2.1,0,3.9-0.4,5.3-1.2
		c1.5-0.8,2.2-1.9,2.2-3.3c0-1.3-0.6-2.5-1.8-3.4c-1.2-1-3.1-1.5-5.6-1.8c-3.5-0.3-6.2-1.1-8.2-2.5c-2-1.4-3-3.2-3-5.3
		c0-1.5,0.5-2.8,1.5-3.8c1-1.1,2.4-1.9,4.2-2.5C314.6,44.3,316.6,44,318.8,44z"/>
	<path class="st2" d="M136.4,56.2c0.6,0,1.1,0.2,1.5,0.5c0.4,0.3,0.6,0.7,0.6,1.2c0,0.5-0.2,0.9-0.6,1.2c-0.4,0.3-0.9,0.5-1.5,0.5
		h-12.1v10.3c0,0.5-0.2,0.9-0.6,1.3s-0.9,0.5-1.6,0.5c-0.6,0-1.1-0.2-1.6-0.5c-0.4-0.3-0.6-0.8-0.6-1.3V46.1c0-0.5,0.2-1,0.6-1.3
		c0.4-0.3,0.9-0.5,1.6-0.5h19c0.6,0,1.2,0.2,1.6,0.5c0.4,0.3,0.6,0.7,0.6,1.2c0,0.5-0.2,0.9-0.6,1.2c-0.4,0.3-0.9,0.5-1.6,0.5h-16.8
		v8.5H136.4z"/>
	<path class="st2" d="M153.1,46.1c0-0.5,0.2-1,0.6-1.3c0.4-0.3,0.9-0.5,1.6-0.5c0.6,0,1.2,0.2,1.6,0.5c0.4,0.3,0.6,0.8,0.6,1.3v23.7
		c0,0.5-0.2,0.9-0.6,1.3c-0.4,0.3-0.9,0.5-1.6,0.5c-0.6,0-1.1-0.2-1.6-0.5s-0.6-0.8-0.6-1.3V46.1z"/>
	<path class="st2" d="M191,44.3c0.6,0,1.1,0.2,1.4,0.5c0.4,0.3,0.6,0.7,0.6,1.2c0,0.5-0.2,0.9-0.6,1.2c-0.4,0.3-0.8,0.5-1.4,0.5h-9
		v22.2c0,0.5-0.2,0.9-0.6,1.3s-0.9,0.5-1.6,0.5c-0.6,0-1.1-0.2-1.6-0.5c-0.4-0.3-0.6-0.8-0.6-1.3V47.7h-9.1c-0.6,0-1.1-0.2-1.5-0.5
		c-0.4-0.3-0.5-0.7-0.5-1.2c0-0.5,0.2-0.9,0.5-1.2c0.4-0.3,0.9-0.5,1.5-0.5H191z"/>
	<path class="st2" d="M224.1,46.1c0-0.5,0.2-1,0.6-1.3c0.4-0.3,0.9-0.5,1.6-0.5s1.1,0.2,1.5,0.5c0.4,0.3,0.6,0.8,0.6,1.3v23.7
		c0,0.5-0.2,1-0.6,1.3c-0.4,0.3-0.9,0.5-1.5,0.5c-0.3,0-0.6,0-1-0.1c-0.3-0.1-0.5-0.3-0.7-0.5l-18.3-20.3v19.1
		c0,0.5-0.2,0.9-0.6,1.3c-0.4,0.3-0.9,0.5-1.6,0.5c-0.6,0-1.1-0.2-1.6-0.5c-0.4-0.4-0.6-0.8-0.6-1.3V46.1c0-0.5,0.2-1,0.6-1.3
		c0.4-0.3,0.9-0.5,1.6-0.5c0.3,0,0.6,0.1,0.9,0.2c0.3,0.1,0.6,0.3,0.8,0.5l18.3,20.3V46.1z"/>
	<path class="st2" d="M262.2,68.3c0.6,0,1.2,0.2,1.6,0.5s0.6,0.7,0.6,1.2c0,0.5-0.2,0.9-0.6,1.3c-0.4,0.3-0.9,0.5-1.6,0.5h-19
		c-0.6,0-1.1-0.2-1.6-0.5s-0.6-0.8-0.6-1.3V46.1c0-0.5,0.2-1,0.6-1.3c0.4-0.3,0.9-0.5,1.6-0.5h19c0.6,0,1.2,0.2,1.6,0.5
		c0.4,0.3,0.6,0.7,0.6,1.2c0,0.5-0.2,0.9-0.6,1.2c-0.4,0.3-0.9,0.5-1.6,0.5h-16.8v8.5h12.1c0.6,0,1.1,0.2,1.5,0.5
		c0.4,0.3,0.6,0.7,0.6,1.2c0,0.5-0.2,0.9-0.6,1.2c-0.4,0.3-0.9,0.5-1.5,0.5h-12.1v8.8H262.2z"/>
	<path class="st2" d="M285.7,44c2.4,0,4.4,0.4,6.1,1.2c1.7,0.8,3.1,2,4.2,3.5c0.3,0.4,0.5,0.9,0.5,1.3c0,0.5-0.3,0.9-0.8,1.3
		c-0.3,0.2-0.7,0.2-1.1,0.2c-0.4,0-0.8-0.1-1.2-0.2c-0.4-0.2-0.6-0.4-0.8-0.7c-0.8-1-1.7-1.8-2.9-2.4c-1.1-0.6-2.5-0.8-4.3-0.8
		c-2.1,0-3.8,0.3-5.2,1c-1.3,0.7-2,1.7-2,3c0,1.2,0.6,2.2,1.8,3c1.2,0.8,3.3,1.4,6.3,1.6c3.4,0.3,6,1.1,7.8,2.6
		c1.8,1.4,2.8,3.3,2.8,5.6c0,1.7-0.5,3.1-1.6,4.3c-1.1,1.2-2.5,2.1-4.4,2.7c-1.8,0.6-3.7,0.9-5.8,0.9c-2.7,0-5.2-0.5-7.4-1.5
		c-2.2-1-3.7-2.4-4.6-4c-0.1-0.3-0.2-0.5-0.2-0.7c0-0.3,0.2-0.7,0.5-0.9c0.3-0.3,0.7-0.5,1.3-0.6c0.1,0,0.2,0,0.4,0
		c0.4,0,0.9,0.1,1.3,0.3c0.4,0.2,0.7,0.5,0.9,0.9c0.5,0.9,1.5,1.7,3,2.3c1.5,0.6,3.1,0.9,4.9,0.9c2.1,0,3.9-0.4,5.3-1.2
		c1.5-0.8,2.2-1.9,2.2-3.3c0-1.3-0.6-2.5-1.8-3.4c-1.2-1-3.1-1.5-5.6-1.8c-3.5-0.3-6.2-1.1-8.2-2.5c-2-1.4-3-3.2-3-5.3
		c0-1.5,0.5-2.8,1.5-3.8c1-1.1,2.4-1.9,4.2-2.5C281.5,44.3,283.5,44,285.7,44z"/>
	<path class="st2" d="M318.8,44c2.4,0,4.4,0.4,6.1,1.2c1.7,0.8,3.1,2,4.2,3.5c0.3,0.4,0.5,0.9,0.5,1.3c0,0.5-0.3,0.9-0.8,1.3
		c-0.3,0.2-0.7,0.2-1.1,0.2c-0.4,0-0.8-0.1-1.2-0.2c-0.4-0.2-0.6-0.4-0.8-0.7c-0.8-1-1.7-1.8-2.9-2.4c-1.1-0.6-2.5-0.8-4.3-0.8
		c-2.1,0-3.8,0.3-5.2,1c-1.3,0.7-2,1.7-2,3c0,1.2,0.6,2.2,1.8,3c1.2,0.8,3.3,1.4,6.3,1.6c3.4,0.3,6,1.1,7.8,2.6
		c1.8,1.4,2.8,3.3,2.8,5.6c0,1.7-0.5,3.1-1.6,4.3c-1.1,1.2-2.5,2.1-4.4,2.7c-1.8,0.6-3.7,0.9-5.8,0.9c-2.7,0-5.2-0.5-7.4-1.5
		c-2.2-1-3.7-2.4-4.6-4c-0.1-0.3-0.2-0.5-0.2-0.7c0-0.3,0.2-0.7,0.5-0.9c0.3-0.3,0.7-0.5,1.3-0.6c0.1,0,0.2,0,0.4,0
		c0.4,0,0.9,0.1,1.3,0.3c0.4,0.2,0.7,0.5,0.9,0.9c0.5,0.9,1.5,1.7,3,2.3c1.5,0.6,3.1,0.9,4.9,0.9c2.1,0,3.9-0.4,5.3-1.2
		c1.5-0.8,2.2-1.9,2.2-3.3c0-1.3-0.6-2.5-1.8-3.4c-1.2-1-3.1-1.5-5.6-1.8c-3.5-0.3-6.2-1.1-8.2-2.5c-2-1.4-3-3.2-3-5.3
		c0-1.5,0.5-2.8,1.5-3.8c1-1.1,2.4-1.9,4.2-2.5C314.6,44.3,316.6,44,318.8,44z"/>
	<path class="st1" d="M141.5,2c0.6,0,1.1,0.2,1.4,0.5c0.4,0.3,0.6,0.7,0.6,1.3s-0.2,1-0.6,1.3c-0.4,0.3-0.8,0.5-1.4,0.5h-9v23.5
		c0,0.5-0.2,1-0.6,1.4c-0.4,0.4-0.9,0.6-1.6,0.6c-0.6,0-1.1-0.2-1.6-0.6c-0.4-0.4-0.6-0.8-0.6-1.4V5.6H119c-0.6,0-1.1-0.2-1.5-0.5
		c-0.4-0.3-0.5-0.8-0.5-1.3s0.2-0.9,0.5-1.3c0.4-0.3,0.9-0.5,1.5-0.5H141.5z"/>
	<path class="st1" d="M183.2,2c0.6,0,1.1,0.2,1.6,0.6c0.4,0.4,0.6,0.8,0.6,1.4v25.1c0,0.5-0.2,1-0.7,1.4c-0.4,0.4-0.9,0.6-1.5,0.6
		c-0.6,0-1.1-0.2-1.6-0.6c-0.4-0.4-0.6-0.8-0.6-1.4V10.6l-10.2,18.3c-0.5,0.6-1.1,1-1.9,1c-0.9,0-1.6-0.4-2-1.2l-10-17.8v18.1
		c0,0.5-0.2,1-0.6,1.4c-0.4,0.4-0.9,0.6-1.6,0.6c-0.6,0-1.1-0.2-1.6-0.6c-0.4-0.4-0.6-0.8-0.6-1.4V3.9c0-0.5,0.2-1,0.6-1.4
		c0.4-0.4,0.9-0.6,1.6-0.6c0.8,0,1.5,0.3,1.9,1l12.5,22.1L181.2,3C181.7,2.3,182.3,2,183.2,2z"/>
	<path class="st1" d="M202.3,29.1c0,0.5-0.2,1-0.6,1.4c-0.4,0.4-0.9,0.6-1.6,0.6c-0.6,0-1.1-0.2-1.6-0.6c-0.4-0.4-0.6-0.8-0.6-1.4
		V3.9c0-0.6,0.2-1,0.6-1.4c0.4-0.4,0.9-0.6,1.6-0.6h8.4c2.1,0,3.9,0.4,5.5,1.2c1.7,0.8,2.9,2,3.8,3.4c0.9,1.5,1.4,3.1,1.4,5
		c0,1.8-0.5,3.4-1.4,4.8c-0.9,1.4-2.2,2.5-3.8,3.3c-1.6,0.8-3.5,1.2-5.5,1.2h-6.2V29.1z M208.5,17.4c1.9,0,3.5-0.5,4.7-1.6
		c1.2-1.1,1.8-2.5,1.8-4.2c0-1.8-0.6-3.2-1.8-4.3c-1.2-1.1-2.8-1.7-4.7-1.7h-6.2v11.8H208.5z"/>
	<path class="st1" d="M247.8,27.1c0.6,0,1.1,0.2,1.6,0.6c0.4,0.4,0.6,0.8,0.6,1.4c0,0.5-0.2,1-0.6,1.4c-0.4,0.4-0.9,0.6-1.6,0.6
		h-17.4c-0.6,0-1.1-0.2-1.6-0.6c-0.4-0.4-0.6-0.8-0.6-1.4V3.9c0-0.5,0.2-1,0.6-1.4s0.9-0.6,1.5-0.6c0.6,0,1.1,0.2,1.6,0.6
		s0.6,0.8,0.6,1.4v23.2H247.8z"/>
	<path class="st2" d="M141.5,2c0.6,0,1.1,0.2,1.4,0.5c0.4,0.3,0.6,0.7,0.6,1.3s-0.2,1-0.6,1.3c-0.4,0.3-0.8,0.5-1.4,0.5h-9v23.5
		c0,0.5-0.2,1-0.6,1.4c-0.4,0.4-0.9,0.6-1.6,0.6c-0.6,0-1.1-0.2-1.6-0.6c-0.4-0.4-0.6-0.8-0.6-1.4V5.6H119c-0.6,0-1.1-0.2-1.5-0.5
		c-0.4-0.3-0.5-0.8-0.5-1.3s0.2-0.9,0.5-1.3c0.4-0.3,0.9-0.5,1.5-0.5H141.5z"/>
	<path class="st2" d="M183.2,2c0.6,0,1.1,0.2,1.6,0.6c0.4,0.4,0.6,0.8,0.6,1.4v25.1c0,0.5-0.2,1-0.7,1.4c-0.4,0.4-0.9,0.6-1.5,0.6
		c-0.6,0-1.1-0.2-1.6-0.6c-0.4-0.4-0.6-0.8-0.6-1.4V10.6l-10.2,18.3c-0.5,0.6-1.1,1-1.9,1c-0.9,0-1.6-0.4-2-1.2l-10-17.8v18.1
		c0,0.5-0.2,1-0.6,1.4c-0.4,0.4-0.9,0.6-1.6,0.6c-0.6,0-1.1-0.2-1.6-0.6c-0.4-0.4-0.6-0.8-0.6-1.4V3.9c0-0.5,0.2-1,0.6-1.4
		c0.4-0.4,0.9-0.6,1.6-0.6c0.8,0,1.5,0.3,1.9,1l12.5,22.1L181.2,3C181.7,2.3,182.3,2,183.2,2z"/>
	<path class="st2" d="M202.3,29.1c0,0.5-0.2,1-0.6,1.4c-0.4,0.4-0.9,0.6-1.6,0.6c-0.6,0-1.1-0.2-1.6-0.6c-0.4-0.4-0.6-0.8-0.6-1.4
		V3.9c0-0.6,0.2-1,0.6-1.4c0.4-0.4,0.9-0.6,1.6-0.6h8.4c2.1,0,3.9,0.4,5.5,1.2c1.7,0.8,2.9,2,3.8,3.4c0.9,1.5,1.4,3.1,1.4,5
		c0,1.8-0.5,3.4-1.4,4.8c-0.9,1.4-2.2,2.5-3.8,3.3c-1.6,0.8-3.5,1.2-5.5,1.2h-6.2V29.1z M208.5,17.4c1.9,0,3.5-0.5,4.7-1.6
		c1.2-1.1,1.8-2.5,1.8-4.2c0-1.8-0.6-3.2-1.8-4.3c-1.2-1.1-2.8-1.7-4.7-1.7h-6.2v11.8H208.5z"/>
	<path class="st2" d="M247.8,27.1c0.6,0,1.1,0.2,1.6,0.6c0.4,0.4,0.6,0.8,0.6,1.4c0,0.5-0.2,1-0.6,1.4c-0.4,0.4-0.9,0.6-1.6,0.6
		h-17.4c-0.6,0-1.1-0.2-1.6-0.6c-0.4-0.4-0.6-0.8-0.6-1.4V3.9c0-0.5,0.2-1,0.6-1.4s0.9-0.6,1.5-0.6c0.6,0,1.1,0.2,1.6,0.6
		s0.6,0.8,0.6,1.4v23.2H247.8z"/>
</g>
</svg>
